<?xml version="1.0" encoding="UTF-8" standalone="no"?>
<!DOCTYPE svg PUBLIC "-//W3C//DTD SVG 1.1//EN" "http://www.w3.org/Graphics/SVG/1.1/DTD/svg11.dtd">
<svg width="100%" height="100%" viewBox="0 0 325 94" version="1.1" xmlns="http://www.w3.org/2000/svg" xmlns:xlink="http://www.w3.org/1999/xlink" xml:space="preserve" xmlns:serif="http://www.serif.com/" style="fill-rule:evenodd;clip-rule:evenodd;stroke-linejoin:round;stroke-miterlimit:2;">
    <g transform="matrix(1,0,0,1,-1024.22,-307.724)">
        <g id="browse-def" transform="matrix(2.08333,0,0,2.08333,732.555,-786.026)">
            <path id="Base" d="M296,530L296,565C296,567.76 293.76,570 291,570L145,570C142.24,570 140,567.76 140,565L140,530C140,527.24 142.24,525 145,525L291,525C293.76,525 296,527.24 296,530ZM295.52,530C295.52,527.505 293.495,525.48 291,525.48L145,525.48C142.505,525.48 140.48,527.505 140.48,530L140.48,565C140.48,567.495 142.505,569.52 145,569.52L291,569.52C293.495,569.52 295.52,567.495 295.52,565L295.52,530Z" style="fill:rgb(0,129,213);"/>
            <g transform="matrix(1,0,0,1,10.8231,0.221836)">
                <g id="Normal" transform="matrix(1,0,0,1,217.871,552.676)">
                    <g transform="matrix(15,0,0,15,33.3362,0)">
                    </g>
                    <text x="-33.336px" y="0px" style="font-family:'ArialMT', 'Arial', sans-serif;font-size:15px;fill:rgb(0,130,213);">BROWSE</text>
                </g>
                <g id="Search-Icon" serif:id="Search Icon" transform="matrix(0.601157,0,0,0.601157,-77.1116,-1092.67)">
                    <path d="M424.544,2739.55C423.954,2740.14 422.997,2740.14 422.406,2739.55L417.77,2734.91C416.019,2736.22 413.854,2737 411.5,2737C405.701,2737 401,2732.3 401,2726.5C401,2720.7 405.701,2716 411.5,2716C417.299,2716 422,2720.7 422,2726.5C422,2728.85 421.216,2731.02 419.908,2732.77L424.544,2737.41C425.135,2738 425.135,2738.95 424.544,2739.55ZM411.5,2719C407.358,2719 404,2722.36 404,2726.5C404,2730.64 407.358,2734 411.5,2734C415.642,2734 419,2730.64 419,2726.5C419,2722.36 415.642,2719 411.5,2719Z" style="fill:rgb(0,130,213);"/>
                </g>
            </g>
        </g>
    </g>
</svg>
