<?xml version="1.0" encoding="UTF-8" standalone="no"?>
<!DOCTYPE svg PUBLIC "-//W3C//DTD SVG 1.1//EN" "http://www.w3.org/Graphics/SVG/1.1/DTD/svg11.dtd">
<svg width="100%" height="100%" viewBox="0 0 325 94" version="1.1" xmlns="http://www.w3.org/2000/svg" xmlns:xlink="http://www.w3.org/1999/xlink" xml:space="preserve" xmlns:serif="http://www.serif.com/" style="fill-rule:evenodd;clip-rule:evenodd;stroke-linejoin:round;stroke-miterlimit:2;">
    <g transform="matrix(1,0,0,1,-676.134,-448.08)">
        <g id="remote-hover" transform="matrix(2.08333,0,0,2.08333,384.467,-726.613)">
            <g id="Base" transform="matrix(1,0,0,1,0,-26.1474)">
                <path d="M296,595C296,592.24 293.76,590 291,590L145,590C142.24,590 140,592.24 140,595L140,630C140,632.76 142.24,635 145,635L291,635C293.76,635 296,632.76 296,630L296,595Z" style="fill:rgb(0,114,188);"/>
            </g>
            <g transform="matrix(1,0,0,1,13.0526,39.0491)">
                <g id="Normal" transform="matrix(1,0,0,1,217.871,552.676)">
                    <g transform="matrix(15,0,0,15,32.0837,0)">
                    </g>
                    <text x="-32.084px" y="0px" style="font-family:'ArialMT', 'Arial', sans-serif;font-size:15px;fill:white;">REMOTE</text>
                </g>
                <g id="Cloud-Icon" serif:id="Cloud Icon" transform="matrix(0.851305,0,0,0.851305,-644.589,-2055.99)">
                    <path d="M970,3061.5C970,3064.54 967.538,3067 964.5,3067C964.499,3067 964.498,3067 964.497,3067L964.497,3067L952.497,3067L952.497,3067C948.908,3067 946,3064.09 946,3060.5C946,3057.24 948.415,3054.56 951.552,3054.1C952.715,3051.12 955.607,3049 959,3049C963.289,3049 966.779,3052.38 966.981,3056.62C968.765,3057.53 970,3059.36 970,3061.5Z" style="fill:white;"/>
                </g>
            </g>
        </g>
    </g>
</svg>
