<?xml version="1.0" encoding="UTF-8" standalone="no"?>
<!DOCTYPE svg PUBLIC "-//W3C//DTD SVG 1.1//EN" "http://www.w3.org/Graphics/SVG/1.1/DTD/svg11.dtd">
<svg width="100%" height="100%" viewBox="0 0 325 94" version="1.1" xmlns="http://www.w3.org/2000/svg" xmlns:xlink="http://www.w3.org/1999/xlink" xml:space="preserve" xmlns:serif="http://www.serif.com/" style="fill-rule:evenodd;clip-rule:evenodd;stroke-linejoin:round;stroke-miterlimit:2;">
    <g transform="matrix(1,0,0,1,-676.134,-306.34)">
        <g id="remote-def" transform="matrix(2.08333,0,0,2.08333,384.467,-787.41)">
            <path id="Base" d="M296,530L296,565C296,567.76 293.76,570 291,570L145,570C142.24,570 140,567.76 140,565L140,530C140,527.24 142.24,525 145,525L291,525C293.76,525 296,527.24 296,530ZM295.52,530C295.52,527.505 293.495,525.48 291,525.48L145,525.48C142.505,525.48 140.48,527.505 140.48,530L140.48,565C140.48,567.495 142.505,569.52 145,569.52L291,569.52C293.495,569.52 295.52,567.495 295.52,565L295.52,530Z" style="fill:rgb(0,129,213);"/>
            <g transform="matrix(1,0,0,1,13.0526,0.196533)">
                <g id="Normal" transform="matrix(1,0,0,1,217.871,552.676)">
                    <g transform="matrix(15,0,0,15,32.0837,0)">
                    </g>
                    <text x="-32.084px" y="0px" style="font-family:'ArialMT', 'Arial', sans-serif;font-size:15px;fill:rgb(0,130,213);">REMOTE</text>
                </g>
                <g id="Cloud-Icon" serif:id="Cloud Icon" transform="matrix(0.851305,0,0,0.851305,-644.589,-2055.99)">
                    <path d="M970,3061.5C970,3064.54 967.538,3067 964.5,3067C964.499,3067 964.498,3067 964.497,3067L964.497,3067L952.497,3067L952.497,3067C948.908,3067 946,3064.09 946,3060.5C946,3057.24 948.415,3054.56 951.552,3054.1C952.715,3051.12 955.607,3049 959,3049C963.289,3049 966.779,3052.38 966.981,3056.62C968.765,3057.53 970,3059.36 970,3061.5Z" style="fill:rgb(6,133,214);"/>
                </g>
            </g>
        </g>
    </g>
</svg>
