<?xml version="1.0" encoding="UTF-8" standalone="no"?>
<!DOCTYPE svg PUBLIC "-//W3C//DTD SVG 1.1//EN" "http://www.w3.org/Graphics/SVG/1.1/DTD/svg11.dtd">
<svg width="100%" height="100%" viewBox="0 0 521 94" version="1.1" xmlns="http://www.w3.org/2000/svg" xmlns:xlink="http://www.w3.org/1999/xlink" xml:space="preserve" xmlns:serif="http://www.serif.com/" style="fill-rule:evenodd;clip-rule:evenodd;stroke-linejoin:round;stroke-miterlimit:2;">
    <g transform="matrix(1,0,0,1,-1729.17,-424.337)">
        <g id="Input" transform="matrix(2.08333,0,0,2.08333,854.167,-2284)">
            <g id="Base">
                <path d="M670,1305C670,1302.24 667.76,1300 665,1300L425,1300C422.24,1300 420,1302.24 420,1305L420,1340C420,1342.76 422.24,1345 425,1345L665,1345C667.76,1345 670,1342.76 670,1340L670,1305Z" style="fill:white;"/>
                <path d="M670,1305L670,1340C670,1342.76 667.76,1345 665,1345L425,1345C422.24,1345 420,1342.76 420,1340L420,1305C420,1302.24 422.24,1300 425,1300L665,1300C667.76,1300 670,1302.24 670,1305ZM669.4,1305C669.4,1302.57 667.428,1300.6 665,1300.6L425,1300.6C422.572,1300.6 420.6,1302.57 420.6,1305L420.6,1340C420.6,1342.43 422.572,1344.4 425,1344.4L665,1344.4C667.428,1344.4 669.4,1342.43 669.4,1340L669.4,1305Z" style="fill:rgb(0,129,213);"/>
            </g>
            <path id="Loupe-Icon" serif:id="Loupe Icon" d="M451.696,1330.7C451.303,1331.09 450.665,1331.09 450.271,1330.7L447.18,1327.61C446.013,1328.48 444.569,1329 443,1329C439.134,1329 436,1325.87 436,1322C436,1318.13 439.134,1315 443,1315C446.866,1315 450,1318.13 450,1322C450,1323.57 449.477,1325.01 448.605,1326.18L451.696,1329.27C452.09,1329.66 452.09,1330.3 451.696,1330.7ZM443,1317C440.239,1317 438,1319.24 438,1322C438,1324.76 440.239,1327 443,1327C445.761,1327 448,1324.76 448,1322C448,1319.24 445.761,1317 443,1317Z" style="fill:rgb(131,147,167);"/>
            <g id="Grade-UI-Kit" serif:id="Grade UI Kit" transform="matrix(1,0,0,1,465.871,1327.68)">
                <g transform="matrix(15,0,0,15,47.5269,0)">
                </g>
                <text x="0px" y="0px" style="font-family:'ArialMT', 'Arial', sans-serif;font-size:15px;fill:rgb(132,147,168);">Search</text>
            </g>
        </g>
    </g>
</svg>
