<?xml version="1.0" encoding="UTF-8" standalone="no"?>
<!DOCTYPE svg PUBLIC "-//W3C//DTD SVG 1.1//EN" "http://www.w3.org/Graphics/SVG/1.1/DTD/svg11.dtd">
<svg width="100%" height="100%" viewBox="0 0 325 94" version="1.1" xmlns="http://www.w3.org/2000/svg" xmlns:xlink="http://www.w3.org/1999/xlink" xml:space="preserve" xmlns:serif="http://www.serif.com/" style="fill-rule:evenodd;clip-rule:evenodd;stroke-linejoin:round;stroke-miterlimit:2;">
    <g transform="matrix(1,0,0,1,-1377.59,-307.776)">
        <g id="submit-def" transform="matrix(2.08333,0,0,2.08333,1085.92,-793.75)">
            <g id="Base" transform="matrix(1,0,0,1,-2.27374e-13,3.73266)">
                <path d="M296,530L296,565C296,567.76 293.76,570 291,570L145,570C142.24,570 140,567.76 140,565L140,530C140,527.24 142.24,525 145,525L291,525C293.76,525 296,527.24 296,530ZM295.52,530C295.52,527.505 293.495,525.48 291,525.48L145,525.48C142.505,525.48 140.48,527.505 140.48,530L140.48,565C140.48,567.495 142.505,569.52 145,569.52L291,569.52C293.495,569.52 295.52,567.495 295.52,565L295.52,530Z" style="fill:rgb(0,129,213);"/>
            </g>
            <g transform="matrix(1,0,0,1,1.63159,-62.902)">
                <g id="Normal" transform="matrix(1,0,0,1,226.824,619.503)">
                    <g transform="matrix(15,0,0,15,28.3337,0)">
                    </g>
                    <text x="-28.334px" y="0px" style="font-family:'ArialMT', 'Arial', sans-serif;font-size:15px;fill:rgb(5,132,214);">SUBMIT</text>
                </g>
                <g id="Checked-Icon" serif:id="Checked Icon" transform="matrix(0.708299,0,0,0.794212,-415.672,-1989.29)">
                    <path d="M857.397,3270.44L845.492,3282.36L840.588,3277.44C839.995,3276.85 839.034,3276.85 838.442,3277.44C837.849,3278.04 837.849,3279 838.442,3279.59L844.388,3285.56C844.692,3285.86 845.093,3286.01 845.492,3286C845.891,3286.01 846.292,3285.86 846.597,3285.56L859.543,3272.59C860.135,3272 860.135,3271.04 859.543,3270.44C858.95,3269.85 857.989,3269.85 857.397,3270.44Z" style="fill:rgb(5,132,214);"/>
                </g>
            </g>
        </g>
    </g>
</svg>
